# MagicaVoxel @ Ephtracy

# material
mtllib player_sword.mtl
usemtl palette

# normals
vn -1 0 0
vn 1 0 0
vn 0 0 1
vn 0 0 -1
vn 0 -1 0
vn 0 1 0

# texcoords
vt 0.701172 0.5
vt 0.962891 0.5
vt 0.966797 0.5
vt 0.970703 0.5
vt 0.974609 0.5
vt 0.978516 0.5
vt 0.982422 0.5

# verts
v -3 12 -0
v -3 12 -1
v -3 13 -0
v -3 13 -1
v -2 11 -0
v -2 11 -1
v -2 12 -0
v -2 12 -1
v -1 7 -0
v -1 7 -1
v -1 8 -0
v -1 8 -1
v -1 13 -0
v -1 13 -1
v -1 15 -0
v -1 15 -1
v -1 19 -0
v -1 19 -1
v -1 25 -0
v -1 25 -1
v 0 6 -0
v 0 6 -1
v 0 7 1
v 0 7 -0
v 0 7 -1
v 0 7 -2
v 0 8 1
v 0 8 -0
v 0 8 -1
v 0 8 -2
v 0 11 -0
v 0 11 -1
v 0 24 -0
v 0 24 -1
v 0 25 -0
v 0 25 -1
v 1 6 -0
v 1 6 -1
v 1 7 1
v 1 7 -0
v 1 7 -1
v 1 7 -2
v 1 8 1
v 1 8 -0
v 1 8 -1
v 1 8 -2
v 1 11 -0
v 1 11 -1
v 1 23 -0
v 1 23 -1
v 1 24 -0
v 1 24 -1
v 2 7 -0
v 2 7 -1
v 2 8 -0
v 2 8 -1
v 2 13 -0
v 2 13 -1
v 2 14 -0
v 2 14 -1
v 2 18 -0
v 2 18 -1
v 2 23 -0
v 2 23 -1
v 3 11 -0
v 3 11 -1
v 3 12 -0
v 3 12 -1
v 4 12 -0
v 4 12 -1
v 4 13 -0
v 4 13 -1
v 0 7 1
v 0 8 1
v 1 7 1
v 1 8 1
v -3 12 -0
v -3 13 -0
v -2 11 -0
v -2 12 -0
v -1 7 -0
v -1 8 -0
v -1 12 -0
v -1 13 -0
v -1 15 -0
v -1 19 -0
v -1 25 -0
v 0 6 -0
v 0 7 -0
v 0 8 -0
v 0 11 -0
v 0 13 -0
v 0 15 -0
v 0 17 -0
v 0 19 -0
v 0 22 -0
v 0 24 -0
v 0 25 -0
v 1 6 -0
v 1 7 -0
v 1 8 -0
v 1 11 -0
v 1 13 -0
v 1 14 -0
v 1 17 -0
v 1 18 -0
v 1 22 -0
v 1 23 -0
v 1 24 -0
v 2 7 -0
v 2 8 -0
v 2 12 -0
v 2 13 -0
v 2 14 -0
v 2 18 -0
v 2 23 -0
v 3 11 -0
v 3 12 -0
v 4 12 -0
v 4 13 -0
v -3 12 -1
v -3 13 -1
v -2 11 -1
v -2 12 -1
v -1 7 -1
v -1 8 -1
v -1 12 -1
v -1 13 -1
v -1 15 -1
v -1 19 -1
v -1 25 -1
v 0 6 -1
v 0 7 -1
v 0 8 -1
v 0 11 -1
v 0 13 -1
v 0 15 -1
v 0 17 -1
v 0 19 -1
v 0 22 -1
v 0 24 -1
v 0 25 -1
v 1 6 -1
v 1 7 -1
v 1 8 -1
v 1 11 -1
v 1 13 -1
v 1 14 -1
v 1 17 -1
v 1 18 -1
v 1 22 -1
v 1 23 -1
v 1 24 -1
v 2 7 -1
v 2 8 -1
v 2 12 -1
v 2 13 -1
v 2 14 -1
v 2 18 -1
v 2 23 -1
v 3 11 -1
v 3 12 -1
v 4 12 -1
v 4 13 -1
v 0 7 -2
v 0 8 -2
v 1 7 -2
v 1 8 -2
v 0 6 -0
v 1 6 -0
v 0 6 -1
v 1 6 -1
v 0 7 1
v 1 7 1
v -1 7 -0
v 0 7 -0
v 1 7 -0
v 2 7 -0
v -1 7 -1
v 0 7 -1
v 1 7 -1
v 2 7 -1
v 0 7 -2
v 1 7 -2
v -2 11 -0
v 0 11 -0
v 1 11 -0
v 3 11 -0
v -2 11 -1
v 0 11 -1
v 1 11 -1
v 3 11 -1
v -3 12 -0
v -2 12 -0
v 3 12 -0
v 4 12 -0
v -3 12 -1
v -2 12 -1
v 3 12 -1
v 4 12 -1
v 0 8 1
v 1 8 1
v -1 8 -0
v 0 8 -0
v 1 8 -0
v 2 8 -0
v -1 8 -1
v 0 8 -1
v 1 8 -1
v 2 8 -1
v 0 8 -2
v 1 8 -2
v -3 13 -0
v -1 13 -0
v 2 13 -0
v 4 13 -0
v -3 13 -1
v -1 13 -1
v 2 13 -1
v 4 13 -1
v 1 23 -0
v 2 23 -0
v 1 23 -1
v 2 23 -1
v 0 24 -0
v 1 24 -0
v 0 24 -1
v 1 24 -1
v -1 25 -0
v 0 25 -0
v -1 25 -1
v 0 25 -1

# faces
f 3/7/1 2/7/1 1/7/1
f 4/7/1 2/7/1 3/7/1
f 7/7/1 6/7/1 5/7/1
f 8/7/1 6/7/1 7/7/1
f 11/7/1 10/7/1 9/7/1
f 12/7/1 10/7/1 11/7/1
f 15/4/1 14/4/1 13/4/1
f 16/4/1 14/4/1 15/4/1
f 17/3/1 16/3/1 15/3/1
f 18/3/1 16/3/1 17/3/1
f 19/2/1 18/2/1 17/2/1
f 20/2/1 18/2/1 19/2/1
f 24/1/1 22/1/1 21/1/1
f 25/1/1 22/1/1 24/1/1
f 27/7/1 24/7/1 23/7/1
f 28/7/1 24/7/1 27/7/1
f 29/7/1 26/7/1 25/7/1
f 30/7/1 26/7/1 29/7/1
f 31/1/1 29/1/1 28/1/1
f 32/1/1 29/1/1 31/1/1
f 33/2/2 34/2/2 35/2/2
f 35/2/2 34/2/2 36/2/2
f 37/1/2 38/1/2 40/1/2
f 40/1/2 38/1/2 41/1/2
f 39/7/2 40/7/2 43/7/2
f 43/7/2 40/7/2 44/7/2
f 41/7/2 42/7/2 45/7/2
f 45/7/2 42/7/2 46/7/2
f 44/1/2 45/1/2 47/1/2
f 47/1/2 45/1/2 48/1/2
f 49/2/2 50/2/2 51/2/2
f 51/2/2 50/2/2 52/2/2
f 53/7/2 54/7/2 55/7/2
f 55/7/2 54/7/2 56/7/2
f 57/4/2 58/4/2 59/4/2
f 59/4/2 58/4/2 60/4/2
f 59/3/2 60/3/2 61/3/2
f 61/3/2 60/3/2 62/3/2
f 61/2/2 62/2/2 63/2/2
f 63/2/2 62/2/2 64/2/2
f 65/7/2 66/7/2 67/7/2
f 67/7/2 66/7/2 68/7/2
f 69/7/2 70/7/2 71/7/2
f 71/7/2 70/7/2 72/7/2
f 75/7/3 74/7/3 73/7/3
f 76/7/3 74/7/3 75/7/3
f 80/7/3 78/7/3 77/7/3
f 83/7/3 78/7/3 80/7/3
f 83/7/3 80/7/3 79/7/3
f 84/7/3 78/7/3 83/7/3
f 89/7/3 82/7/3 81/7/3
f 90/7/3 82/7/3 89/7/3
f 91/7/3 83/7/3 79/7/3
f 92/5/3 84/5/3 83/5/3
f 92/4/3 85/4/3 84/4/3
f 93/3/3 86/3/3 85/3/3
f 93/4/3 85/4/3 92/4/3
f 94/3/3 86/3/3 93/3/3
f 95/2/3 87/2/3 86/2/3
f 95/3/3 86/3/3 94/3/3
f 96/2/3 87/2/3 95/2/3
f 97/2/3 87/2/3 96/2/3
f 98/2/3 87/2/3 97/2/3
f 99/1/3 89/1/3 88/1/3
f 100/1/3 89/1/3 99/1/3
f 101/1/3 91/1/3 90/1/3
f 102/7/3 83/7/3 91/7/3
f 102/1/3 91/1/3 101/1/3
f 103/5/3 94/5/3 93/5/3
f 103/5/3 92/5/3 83/5/3
f 103/5/3 93/5/3 92/5/3
f 104/5/3 94/5/3 103/5/3
f 105/4/3 95/4/3 94/4/3
f 105/5/3 94/5/3 104/5/3
f 105/4/3 96/4/3 95/4/3
f 106/4/3 96/4/3 105/4/3
f 107/2/3 97/2/3 96/2/3
f 107/4/3 96/4/3 106/4/3
f 108/2/3 97/2/3 107/2/3
f 109/2/3 97/2/3 108/2/3
f 110/7/3 101/7/3 100/7/3
f 111/7/3 101/7/3 110/7/3
f 112/7/3 83/7/3 102/7/3
f 112/5/3 103/5/3 83/5/3
f 113/4/3 104/4/3 103/4/3
f 113/5/3 103/5/3 112/5/3
f 114/3/3 106/3/3 105/3/3
f 114/4/3 104/4/3 113/4/3
f 114/3/3 105/3/3 104/3/3
f 115/2/3 108/2/3 107/2/3
f 115/3/3 106/3/3 114/3/3
f 115/2/3 107/2/3 106/2/3
f 116/2/3 108/2/3 115/2/3
f 117/7/3 113/7/3 112/7/3
f 117/7/3 112/7/3 102/7/3
f 118/7/3 113/7/3 117/7/3
f 119/7/3 113/7/3 118/7/3
f 120/7/3 113/7/3 119/7/3
f 121/7/4 122/7/4 124/7/4
f 124/7/4 122/7/4 127/7/4
f 123/7/4 124/7/4 127/7/4
f 127/7/4 122/7/4 128/7/4
f 125/7/4 126/7/4 133/7/4
f 133/7/4 126/7/4 134/7/4
f 123/7/4 127/7/4 135/7/4
f 127/5/4 128/5/4 136/5/4
f 128/4/4 129/4/4 136/4/4
f 129/3/4 130/3/4 137/3/4
f 136/4/4 129/4/4 137/4/4
f 137/3/4 130/3/4 138/3/4
f 130/2/4 131/2/4 139/2/4
f 138/3/4 130/3/4 139/3/4
f 139/2/4 131/2/4 140/2/4
f 140/2/4 131/2/4 141/2/4
f 141/2/4 131/2/4 142/2/4
f 132/1/4 133/1/4 143/1/4
f 143/1/4 133/1/4 144/1/4
f 134/1/4 135/1/4 145/1/4
f 135/7/4 127/7/4 146/7/4
f 145/1/4 135/1/4 146/1/4
f 137/5/4 138/5/4 147/5/4
f 127/5/4 136/5/4 147/5/4
f 136/5/4 137/5/4 147/5/4
f 147/5/4 138/5/4 148/5/4
f 138/4/4 139/4/4 149/4/4
f 148/5/4 138/5/4 149/5/4
f 139/4/4 140/4/4 149/4/4
f 149/4/4 140/4/4 150/4/4
f 140/2/4 141/2/4 151/2/4
f 150/4/4 140/4/4 151/4/4
f 151/2/4 141/2/4 152/2/4
f 152/2/4 141/2/4 153/2/4
f 144/7/4 145/7/4 154/7/4
f 154/7/4 145/7/4 155/7/4
f 146/7/4 127/7/4 156/7/4
f 127/5/4 147/5/4 156/5/4
f 147/4/4 148/4/4 157/4/4
f 156/5/4 147/5/4 157/5/4
f 149/3/4 150/3/4 158/3/4
f 157/4/4 148/4/4 158/4/4
f 148/3/4 149/3/4 158/3/4
f 151/2/4 152/2/4 159/2/4
f 158/3/4 150/3/4 159/3/4
f 150/2/4 151/2/4 159/2/4
f 159/2/4 152/2/4 160/2/4
f 156/7/4 157/7/4 161/7/4
f 146/7/4 156/7/4 161/7/4
f 161/7/4 157/7/4 162/7/4
f 162/7/4 157/7/4 163/7/4
f 163/7/4 157/7/4 164/7/4
f 165/7/4 166/7/4 167/7/4
f 167/7/4 166/7/4 168/7/4
f 171/1/5 170/1/5 169/1/5
f 172/1/5 170/1/5 171/1/5
f 176/7/5 174/7/5 173/7/5
f 177/7/5 174/7/5 176/7/5
f 179/7/5 176/7/5 175/7/5
f 180/7/5 176/7/5 179/7/5
f 181/7/5 178/7/5 177/7/5
f 182/7/5 178/7/5 181/7/5
f 183/7/5 181/7/5 180/7/5
f 184/7/5 181/7/5 183/7/5
f 189/7/5 186/7/5 185/7/5
f 190/7/5 186/7/5 189/7/5
f 191/7/5 188/7/5 187/7/5
f 192/7/5 188/7/5 191/7/5
f 197/7/5 194/7/5 193/7/5
f 198/7/5 194/7/5 197/7/5
f 199/7/5 196/7/5 195/7/5
f 200/7/5 196/7/5 199/7/5
f 201/7/6 202/7/6 204/7/6
f 204/7/6 202/7/6 205/7/6
f 203/7/6 204/7/6 207/7/6
f 207/7/6 204/7/6 208/7/6
f 205/7/6 206/7/6 209/7/6
f 209/7/6 206/7/6 210/7/6
f 208/7/6 209/7/6 211/7/6
f 211/7/6 209/7/6 212/7/6
f 213/7/6 214/7/6 217/7/6
f 217/7/6 214/7/6 218/7/6
f 215/7/6 216/7/6 219/7/6
f 219/7/6 216/7/6 220/7/6
f 221/2/6 222/2/6 223/2/6
f 223/2/6 222/2/6 224/2/6
f 225/2/6 226/2/6 227/2/6
f 227/2/6 226/2/6 228/2/6
f 229/2/6 230/2/6 231/2/6
f 231/2/6 230/2/6 232/2/6
