# MagicaVoxel @ Ephtracy

# material
mtllib player_shield.mtl
usemtl palette

# normals
vn -1 0 0
vn 1 0 0
vn 0 0 1
vn 0 0 -1
vn 0 -1 0
vn 0 1 0

# texcoords
vt 0.919922 0.5
vt 0.962891 0.5
vt 0.970703 0.5
vt 0.974609 0.5

# verts
v -5 10 -1
v -5 10 -2
v -5 15 -1
v -5 15 -2
v -4 9 -0
v -4 9 -1
v -4 10 -1
v -4 11 -0
v -4 11 -1
v -4 14 -0
v -4 14 -1
v -4 15 -0
v -4 15 -1
v -3 8 1
v -3 8 -0
v -3 9 1
v -3 9 -0
v -3 11 -0
v -3 12 1
v -3 12 -0
v -3 13 1
v -3 13 -0
v -3 14 1
v -3 14 -0
v -3 15 1
v -3 15 -0
v -2 7 1
v -2 7 -0
v -2 8 1
v -2 8 -0
v -1 8 -0
v -1 8 -1
v -1 9 -0
v -1 9 -1
v -1 10 -0
v -1 10 -1
v -1 10 -2
v -1 13 -0
v -1 13 -1
v -1 13 -2
v -1 14 -0
v -1 14 -1
v 2 9 -0
v 2 9 -1
v 2 11 -0
v 2 11 -1
v 2 12 -0
v 2 13 -0
v 2 14 -0
v 2 14 -1
v 2 15 -0
v 2 15 -1
v 3 10 -1
v 3 10 -2
v 3 11 -1
v 3 14 -1
v 3 15 -1
v 3 15 -2
v -4 10 -1
v -4 10 -2
v -4 11 -1
v -4 14 -1
v -4 15 -1
v -4 15 -2
v -3 9 -0
v -3 9 -1
v -3 11 -0
v -3 11 -1
v -3 12 -0
v -3 13 -0
v -3 14 -0
v -3 14 -1
v -3 15 -0
v -3 15 -1
v 0 8 -0
v 0 8 -1
v 0 9 -0
v 0 9 -1
v 0 10 -0
v 0 10 -1
v 0 10 -2
v 0 13 -0
v 0 13 -1
v 0 13 -2
v 0 14 -0
v 0 14 -1
v 1 7 1
v 1 7 -0
v 1 8 1
v 1 8 -0
v 2 8 1
v 2 8 -0
v 2 9 1
v 2 9 -0
v 2 11 -0
v 2 12 1
v 2 12 -0
v 2 13 1
v 2 13 -0
v 2 14 1
v 2 14 -0
v 2 15 1
v 2 15 -0
v 3 9 -0
v 3 9 -1
v 3 10 -1
v 3 11 -0
v 3 11 -1
v 3 14 -0
v 3 14 -1
v 3 15 -0
v 3 15 -1
v 4 10 -1
v 4 10 -2
v 4 15 -1
v 4 15 -2
v -3 8 1
v -3 9 1
v -3 12 1
v -3 13 1
v -3 14 1
v -3 15 1
v -2 7 1
v -2 8 1
v -2 9 1
v -1 8 1
v -1 12 1
v -1 13 1
v -1 14 1
v 0 8 1
v 0 12 1
v 0 13 1
v 0 14 1
v 1 7 1
v 1 8 1
v 1 9 1
v 2 8 1
v 2 9 1
v 2 12 1
v 2 13 1
v 2 14 1
v 2 15 1
v -4 9 -0
v -4 11 -0
v -4 14 -0
v -4 15 -0
v -3 9 -0
v -3 11 -0
v -3 12 -0
v -3 13 -0
v -3 14 -0
v -3 15 -0
v 2 9 -0
v 2 11 -0
v 2 12 -0
v 2 13 -0
v 2 14 -0
v 2 15 -0
v 3 9 -0
v 3 11 -0
v 3 14 -0
v 3 15 -0
v -5 10 -1
v -5 15 -1
v -4 10 -1
v -4 11 -1
v -4 14 -1
v -4 15 -1
v -1 10 -1
v -1 13 -1
v 0 10 -1
v 0 13 -1
v 3 10 -1
v 3 11 -1
v 3 14 -1
v 3 15 -1
v 4 10 -1
v 4 15 -1
v -3 8 -0
v -3 9 -0
v -3 11 -0
v -3 12 -0
v -3 13 -0
v -3 14 -0
v -3 15 -0
v -2 7 -0
v -2 8 -0
v -2 9 -0
v -1 8 -0
v -1 9 -0
v -1 10 -0
v -1 12 -0
v -1 13 -0
v -1 14 -0
v 0 8 -0
v 0 9 -0
v 0 10 -0
v 0 12 -0
v 0 13 -0
v 0 14 -0
v 1 7 -0
v 1 8 -0
v 1 9 -0
v 2 8 -0
v 2 9 -0
v 2 11 -0
v 2 12 -0
v 2 13 -0
v 2 14 -0
v 2 15 -0
v -4 9 -1
v -4 10 -1
v -4 11 -1
v -4 14 -1
v -4 15 -1
v -3 9 -1
v -3 11 -1
v -3 14 -1
v -3 15 -1
v -1 8 -1
v -1 9 -1
v -1 10 -1
v -1 13 -1
v -1 14 -1
v 0 8 -1
v 0 9 -1
v 0 10 -1
v 0 13 -1
v 0 14 -1
v 2 9 -1
v 2 11 -1
v 2 14 -1
v 2 15 -1
v 3 9 -1
v 3 10 -1
v 3 11 -1
v 3 14 -1
v 3 15 -1
v -5 10 -2
v -5 15 -2
v -4 10 -2
v -4 15 -2
v -1 10 -2
v -1 13 -2
v 0 10 -2
v 0 13 -2
v 3 10 -2
v 3 15 -2
v 4 10 -2
v 4 15 -2
v -2 7 1
v 1 7 1
v -2 7 -0
v 1 7 -0
v -3 8 1
v -2 8 1
v 1 8 1
v 2 8 1
v -3 8 -0
v -2 8 -0
v -1 8 -0
v 0 8 -0
v 1 8 -0
v 2 8 -0
v -1 8 -1
v 0 8 -1
v -4 9 -0
v -3 9 -0
v 2 9 -0
v 3 9 -0
v -4 9 -1
v -3 9 -1
v 2 9 -1
v 3 9 -1
v -5 10 -1
v -4 10 -1
v -1 10 -1
v 0 10 -1
v 3 10 -1
v 4 10 -1
v -5 10 -2
v -4 10 -2
v -1 10 -2
v 0 10 -2
v 3 10 -2
v 4 10 -2
v -1 13 -0
v 0 13 -0
v -1 13 -1
v 0 13 -1
v -1 10 -0
v 0 10 -0
v -1 10 -1
v 0 10 -1
v -1 13 -1
v 0 13 -1
v -1 13 -2
v 0 13 -2
v -1 14 -0
v 0 14 -0
v -1 14 -1
v 0 14 -1
v -3 15 1
v 2 15 1
v -4 15 -0
v -3 15 -0
v 2 15 -0
v 3 15 -0
v -5 15 -1
v -4 15 -1
v -3 15 -1
v 2 15 -1
v 3 15 -1
v 4 15 -1
v -5 15 -2
v -4 15 -2
v 3 15 -2
v 4 15 -2

# faces
f 3/4/1 2/4/1 1/4/1
f 4/4/1 2/4/1 3/4/1
f 7/4/1 6/4/1 5/4/1
f 8/4/1 7/4/1 5/4/1
f 9/4/1 7/4/1 8/4/1
f 10/1/1 9/1/1 8/1/1
f 11/1/1 9/1/1 10/1/1
f 12/4/1 11/4/1 10/4/1
f 13/4/1 11/4/1 12/4/1
f 16/4/1 15/4/1 14/4/1
f 17/4/1 15/4/1 16/4/1
f 18/2/1 17/2/1 16/2/1
f 19/2/1 18/2/1 16/2/1
f 20/2/1 18/2/1 19/2/1
f 21/1/1 20/1/1 19/1/1
f 22/1/1 20/1/1 21/1/1
f 23/2/1 22/2/1 21/2/1
f 24/2/1 22/2/1 23/2/1
f 25/4/1 24/4/1 23/4/1
f 26/4/1 24/4/1 25/4/1
f 29/4/1 28/4/1 27/4/1
f 30/4/1 28/4/1 29/4/1
f 33/3/1 32/3/1 31/3/1
f 34/3/1 32/3/1 33/3/1
f 35/4/1 34/4/1 33/4/1
f 36/4/1 34/4/1 35/4/1
f 39/4/1 37/4/1 36/4/1
f 40/4/1 37/4/1 39/4/1
f 41/4/1 39/4/1 38/4/1
f 42/4/1 39/4/1 41/4/1
f 45/4/1 44/4/1 43/4/1
f 46/4/1 44/4/1 45/4/1
f 47/1/1 46/1/1 45/1/1
f 48/1/1 46/1/1 47/1/1
f 49/1/1 46/1/1 48/1/1
f 50/1/1 46/1/1 49/1/1
f 51/4/1 50/4/1 49/4/1
f 52/4/1 50/4/1 51/4/1
f 55/4/1 54/4/1 53/4/1
f 56/4/1 54/4/1 55/4/1
f 57/4/1 54/4/1 56/4/1
f 58/4/1 54/4/1 57/4/1
f 59/4/2 60/4/2 61/4/2
f 61/4/2 60/4/2 62/4/2
f 62/4/2 60/4/2 63/4/2
f 63/4/2 60/4/2 64/4/2
f 65/4/2 66/4/2 67/4/2
f 67/4/2 66/4/2 68/4/2
f 67/1/2 68/1/2 69/1/2
f 69/1/2 68/1/2 70/1/2
f 70/1/2 68/1/2 71/1/2
f 71/1/2 68/1/2 72/1/2
f 71/4/2 72/4/2 73/4/2
f 73/4/2 72/4/2 74/4/2
f 75/3/2 76/3/2 77/3/2
f 77/3/2 76/3/2 78/3/2
f 77/4/2 78/4/2 79/4/2
f 79/4/2 78/4/2 80/4/2
f 80/4/2 81/4/2 83/4/2
f 83/4/2 81/4/2 84/4/2
f 82/4/2 83/4/2 85/4/2
f 85/4/2 83/4/2 86/4/2
f 87/4/2 88/4/2 89/4/2
f 89/4/2 88/4/2 90/4/2
f 91/4/2 92/4/2 93/4/2
f 93/4/2 92/4/2 94/4/2
f 93/2/2 94/2/2 95/2/2
f 93/2/2 95/2/2 96/2/2
f 96/2/2 95/2/2 97/2/2
f 96/1/2 97/1/2 98/1/2
f 98/1/2 97/1/2 99/1/2
f 98/2/2 99/2/2 100/2/2
f 100/2/2 99/2/2 101/2/2
f 100/4/2 101/4/2 102/4/2
f 102/4/2 101/4/2 103/4/2
f 104/4/2 105/4/2 106/4/2
f 104/4/2 106/4/2 107/4/2
f 107/4/2 106/4/2 108/4/2
f 107/1/2 108/1/2 109/1/2
f 109/1/2 108/1/2 110/1/2
f 109/4/2 110/4/2 111/4/2
f 111/4/2 110/4/2 112/4/2
f 113/4/2 114/4/2 115/4/2
f 115/4/2 114/4/2 116/4/2
f 124/4/3 118/4/3 117/4/3
f 125/2/3 119/2/3 118/2/3
f 125/4/3 118/4/3 124/4/3
f 126/4/3 124/4/3 123/4/3
f 126/2/3 125/2/3 124/2/3
f 127/2/3 119/2/3 125/2/3
f 127/2/3 125/2/3 126/2/3
f 127/1/3 120/1/3 119/1/3
f 128/2/3 121/2/3 120/2/3
f 128/1/3 120/1/3 127/1/3
f 129/4/3 122/4/3 121/4/3
f 129/2/3 121/2/3 128/2/3
f 130/1/3 128/1/3 127/1/3
f 130/4/3 126/4/3 123/4/3
f 130/1/3 129/1/3 128/1/3
f 130/1/3 127/1/3 126/1/3
f 131/1/3 129/1/3 130/1/3
f 132/1/3 129/1/3 131/1/3
f 133/4/3 122/4/3 129/4/3
f 133/1/3 129/1/3 132/1/3
f 134/4/3 130/4/3 123/4/3
f 135/2/3 131/2/3 130/2/3
f 135/4/3 130/4/3 134/4/3
f 136/2/3 131/2/3 135/2/3
f 137/4/3 136/4/3 135/4/3
f 138/2/3 131/2/3 136/2/3
f 138/4/3 136/4/3 137/4/3
f 139/1/3 132/1/3 131/1/3
f 139/2/3 131/2/3 138/2/3
f 140/2/3 133/2/3 132/2/3
f 140/1/3 132/1/3 139/1/3
f 141/4/3 122/4/3 133/4/3
f 141/2/3 133/2/3 140/2/3
f 142/4/3 122/4/3 141/4/3
f 147/4/3 144/4/3 143/4/3
f 148/1/3 145/1/3 144/1/3
f 148/4/3 144/4/3 147/4/3
f 149/1/3 145/1/3 148/1/3
f 150/1/3 145/1/3 149/1/3
f 151/4/3 146/4/3 145/4/3
f 151/1/3 145/1/3 150/1/3
f 152/4/3 146/4/3 151/4/3
f 159/4/3 154/4/3 153/4/3
f 160/1/3 155/1/3 154/1/3
f 160/4/3 154/4/3 159/4/3
f 160/1/3 156/1/3 155/1/3
f 160/1/3 157/1/3 156/1/3
f 161/4/3 158/4/3 157/4/3
f 161/1/3 157/1/3 160/1/3
f 162/4/3 158/4/3 161/4/3
f 165/4/3 164/4/3 163/4/3
f 166/4/3 164/4/3 165/4/3
f 167/4/3 164/4/3 166/4/3
f 168/4/3 164/4/3 167/4/3
f 171/4/3 170/4/3 169/4/3
f 172/4/3 170/4/3 171/4/3
f 177/4/3 174/4/3 173/4/3
f 177/4/3 176/4/3 175/4/3
f 177/4/3 175/4/3 174/4/3
f 178/4/3 176/4/3 177/4/3
f 179/4/4 180/4/4 187/4/4
f 180/2/4 181/2/4 188/2/4
f 181/2/4 182/2/4 188/2/4
f 187/4/4 180/4/4 188/4/4
f 186/4/4 187/4/4 189/4/4
f 187/2/4 188/2/4 189/2/4
f 188/2/4 182/2/4 190/2/4
f 189/2/4 188/2/4 190/2/4
f 190/2/4 182/2/4 191/2/4
f 182/1/4 183/1/4 192/1/4
f 191/2/4 182/2/4 192/2/4
f 183/2/4 184/2/4 193/2/4
f 192/1/4 183/1/4 193/1/4
f 184/4/4 185/4/4 194/4/4
f 193/2/4 184/2/4 194/2/4
f 186/4/4 189/4/4 195/4/4
f 192/1/4 193/1/4 197/1/4
f 191/1/4 192/1/4 197/1/4
f 197/1/4 193/1/4 198/1/4
f 198/1/4 193/1/4 199/1/4
f 194/4/4 185/4/4 200/4/4
f 186/4/4 195/4/4 201/4/4
f 195/2/4 196/2/4 202/2/4
f 201/4/4 195/4/4 202/4/4
f 196/2/4 197/2/4 202/2/4
f 197/2/4 198/2/4 202/2/4
f 202/2/4 198/2/4 203/2/4
f 202/4/4 203/4/4 204/4/4
f 203/2/4 198/2/4 205/2/4
f 204/4/4 203/4/4 205/4/4
f 205/2/4 198/2/4 206/2/4
f 198/1/4 199/1/4 207/1/4
f 206/2/4 198/2/4 207/2/4
f 199/2/4 200/2/4 208/2/4
f 207/1/4 199/1/4 208/1/4
f 200/4/4 185/4/4 209/4/4
f 208/2/4 200/2/4 209/2/4
f 209/4/4 185/4/4 210/4/4
f 211/4/4 212/4/4 216/4/4
f 212/4/4 213/4/4 216/4/4
f 213/1/4 214/1/4 217/1/4
f 216/4/4 213/4/4 217/4/4
f 214/4/4 215/4/4 218/4/4
f 217/1/4 214/1/4 218/1/4
f 218/4/4 215/4/4 219/4/4
f 220/3/4 221/3/4 225/3/4
f 221/4/4 222/4/4 226/4/4
f 225/3/4 221/3/4 226/3/4
f 226/4/4 222/4/4 227/4/4
f 223/4/4 224/4/4 228/4/4
f 228/4/4 224/4/4 229/4/4
f 230/4/4 231/4/4 234/4/4
f 234/4/4 231/4/4 235/4/4
f 231/1/4 232/1/4 236/1/4
f 235/4/4 231/4/4 236/4/4
f 232/4/4 233/4/4 237/4/4
f 236/1/4 232/1/4 237/1/4
f 237/4/4 233/4/4 238/4/4
f 239/4/4 240/4/4 241/4/4
f 241/4/4 240/4/4 242/4/4
f 243/4/4 244/4/4 245/4/4
f 245/4/4 244/4/4 246/4/4
f 247/4/4 248/4/4 249/4/4
f 249/4/4 248/4/4 250/4/4
f 253/4/5 252/4/5 251/4/5
f 254/4/5 252/4/5 253/4/5
f 259/4/5 256/4/5 255/4/5
f 260/4/5 256/4/5 259/4/5
f 263/4/5 258/4/5 257/4/5
f 264/4/5 258/4/5 263/4/5
f 265/3/5 262/3/5 261/3/5
f 266/3/5 262/3/5 265/3/5
f 271/4/5 268/4/5 267/4/5
f 272/4/5 268/4/5 271/4/5
f 273/4/5 270/4/5 269/4/5
f 274/4/5 270/4/5 273/4/5
f 281/4/5 276/4/5 275/4/5
f 282/4/5 276/4/5 281/4/5
f 283/4/5 278/4/5 277/4/5
f 284/4/5 278/4/5 283/4/5
f 285/4/5 280/4/5 279/4/5
f 286/4/5 280/4/5 285/4/5
f 289/4/5 288/4/5 287/4/5
f 290/4/5 288/4/5 289/4/5
f 291/4/6 292/4/6 293/4/6
f 293/4/6 292/4/6 294/4/6
f 295/4/6 296/4/6 297/4/6
f 297/4/6 296/4/6 298/4/6
f 299/4/6 300/4/6 301/4/6
f 301/4/6 300/4/6 302/4/6
f 303/4/6 304/4/6 306/4/6
f 306/4/6 304/4/6 307/4/6
f 305/4/6 306/4/6 310/4/6
f 310/4/6 306/4/6 311/4/6
f 307/4/6 308/4/6 312/4/6
f 312/4/6 308/4/6 313/4/6
f 309/4/6 310/4/6 315/4/6
f 315/4/6 310/4/6 316/4/6
f 313/4/6 314/4/6 317/4/6
f 317/4/6 314/4/6 318/4/6
